<?xml version="1.0" encoding="UTF-8" standalone="no"?>
<svg 
   xmlns:dc="http://purl.org/dc/elements/1.1/"
   xmlns:cc="http://creativecommons.org/ns#"
   xmlns:rdf="http://www.w3.org/1999/02/22-rdf-syntax-ns#"
   xmlns:svg="http://www.w3.org/2000/svg"
   xmlns="http://www.w3.org/2000/svg"
   xmlns:sodipodi="http://sodipodi.sourceforge.net/DTD/sodipodi-0.dtd"
   xmlns:inkscape="http://www.inkscape.org/namespaces/inkscape"
   version="1.1"
   width="100"
   height="100"
   id="svg3790"
   sodipodi:docname="king-black.svg"
   inkscape:version="0.92.2 (5c3e80d, 2017-08-06)">
  <metadata
     id="metadata3796">
    <rdf:RDF>
      <cc:Work
         rdf:about="">
        <dc:format>image/svg+xml</dc:format>
        <dc:type
           rdf:resource="http://purl.org/dc/dcmitype/StillImage" />
        <dc:title></dc:title>
      </cc:Work>
    </rdf:RDF>
  </metadata>
  <defs
     id="defs3794" />
  <sodipodi:namedview
     pagecolor="#ffffff"
     bordercolor="#666666"
     borderopacity="1"
     objecttolerance="10"
     gridtolerance="10"
     guidetolerance="10"
     inkscape:pageopacity="0"
     inkscape:pageshadow="2"
     inkscape:window-width="1920"
     inkscape:window-height="1001"
     id="namedview3792"
     showgrid="true"
     inkscape:zoom="5.2444444"
     inkscape:cx="20.141636"
     inkscape:cy="33.004237"
     inkscape:window-x="-9"
     inkscape:window-y="-9"
     inkscape:window-maximized="1"
     inkscape:current-layer="layer7" />
  <g
     inkscape:groupmode="layer"
     id="layer1"
     inkscape:label="new"
     style="display:none">
    <path
       style="opacity:1;fill:#ffffff;fill-opacity:1;fill-rule:nonzero;stroke:#000000;stroke-width:4.43167353;stroke-linecap:round;stroke-linejoin:miter;stroke-miterlimit:4;stroke-dasharray:none;stroke-opacity:1"
       d="m 50,4.944651 c -6.529333,0 -11.817797,5.288464 -11.817797,11.817796 0,2.62946 0.854714,5.054646 2.302394,7.034127 -5.761176,3.308983 -9.688516,9.481244 -9.688516,16.601466 0,5.997532 2.777643,11.343008 7.120683,14.858803 -8.863348,3.131716 -21.892929,16.399269 -21.892929,39.798505 h 67.95233 c 0,-23.399236 -13.029581,-36.666789 -21.892929,-39.798505 4.34304,-3.515795 7.120683,-8.861271 7.120683,-14.858803 0,-7.120222 -3.92734,-13.292483 -9.688516,-16.601466 1.44768,-1.979481 2.302394,-4.404667 2.302394,-7.034127 C 61.817797,10.233115 56.529333,4.944651 50,4.944651 Z"
       id="path3788-0"
       inkscape:connector-curvature="0" />
  </g>
  <g
     inkscape:groupmode="layer"
     id="layer2"
     inkscape:label="new 1"
     style="display:none">
    <g
       id="g4686"
       style="display:inline;opacity:1;fill:#ffffff;fill-opacity:1;fill-rule:evenodd;stroke:#000000;stroke-width:1.5;stroke-linecap:round;stroke-linejoin:round;stroke-miterlimit:4;stroke-dasharray:none;stroke-opacity:1"
       transform="matrix(2.998028,0,0,2.998028,-17.455629,-21.952672)">
      <path
         id="path4672"
         style="stroke-linecap:butt"
         d="M 9,39 H 36 V 36 H 9 Z"
         inkscape:connector-curvature="0" />
      <path
         id="path4674"
         style="stroke-linecap:butt"
         d="m 12,36 v -4 h 21 v 4 z"
         inkscape:connector-curvature="0" />
      <path
         id="path4676"
         style="stroke-linecap:butt"
         d="M 11,14 V 9 h 4 v 2 h 5 V 9 h 5 v 2 h 5 V 9 h 4 v 5"
         inkscape:connector-curvature="0" />
      <path
         id="path4678"
         d="m 34,14 -3,3 H 14 l -3,-3"
         inkscape:connector-curvature="0" />
      <path
         id="path4680"
         style="stroke-linecap:butt;stroke-linejoin:miter"
         d="M 31,17 V 29.5 H 14 V 17"
         inkscape:connector-curvature="0" />
      <path
         id="path4682"
         d="m 31,29.5 1.5,2.5 h -20 L 14,29.5"
         inkscape:connector-curvature="0" />
      <path
         id="path4684"
         style="fill:none;stroke:#000000;stroke-linejoin:miter"
         d="M 11,14 H 34"
         inkscape:connector-curvature="0" />
    </g>
  </g>
  <g
     inkscape:groupmode="layer"
     id="layer3"
     inkscape:label="new 2"
     style="display:none">
    <g
       id="g4793"
       style="opacity:1;fill:none;fill-opacity:1;fill-rule:evenodd;stroke:#000000;stroke-width:1.5;stroke-linecap:round;stroke-linejoin:round;stroke-miterlimit:4;stroke-dasharray:none;stroke-opacity:1"
       transform="matrix(2.8198122,0,0,2.8198122,-12.07711,-14.85568)">
      <path
         id="path4785"
         style="fill:#ffffff;stroke:#000000"
         d="m 22,10 c 10.5,1 16.5,8 16,29 H 15 c 0,-9 10,-6.5 8,-21"
         inkscape:connector-curvature="0" />
      <path
         id="path4787"
         style="fill:#ffffff;stroke:#000000"
         d="m 24,18 c 0.38,2.91 -5.55,7.37 -8,9 -3,2 -2.82,4.34 -5,4 -1.042,-0.94 1.41,-3.04 0,-3 -1,0 0.19,1.23 -1,2 -1,0 -4.003,1 -4,-4 0,-2 6,-12 6,-12 0,0 1.89,-1.9 2,-3.5 -0.73,-0.994 -0.5,-2 -0.5,-3 1,-1 3,2.5 3,2.5 h 2 c 0,0 0.78,-1.992 2.5,-3 1,0 1,3 1,3"
         inkscape:connector-curvature="0" />
      <path
         id="path4789"
         style="fill:#000000;stroke:#000000"
         d="m 9.5,25.5 a 0.5,0.5 0 1 1 -1,0 0.5,0.5 0 1 1 1,0 z"
         inkscape:connector-curvature="0" />
      <path
         id="path4791"
         style="fill:#000000;stroke:#000000"
         transform="matrix(0.866,0.5,-0.5,0.866,9.693,-5.173)"
         d="m 15,15.5 a 0.5,1.5 0 1 1 -1,0 0.5,1.5 0 1 1 1,0 z"
         inkscape:connector-curvature="0" />
    </g>
  </g>
  <g
     inkscape:groupmode="layer"
     id="layer4"
     inkscape:label="new 3"
     style="display:none">
    <g
       id="g4853"
       style="opacity:1;fill:#ffffff;fill-opacity:1;fill-rule:evenodd;stroke:#000000;stroke-width:1.5;stroke-linecap:round;stroke-linejoin:round;stroke-miterlimit:4;stroke-dasharray:none;stroke-opacity:1"
       transform="matrix(2.5454545,0,0,2.5454545,-7.2684895,-6.9641062)">
      <path
         id="path4835"
         transform="translate(-1,-1)"
         d="m 9,13 a 2,2 0 1 1 -4,0 2,2 0 1 1 4,0 z"
         inkscape:connector-curvature="0" />
      <path
         id="path4837"
         transform="translate(15.5,-5.5)"
         d="m 9,13 a 2,2 0 1 1 -4,0 2,2 0 1 1 4,0 z"
         inkscape:connector-curvature="0" />
      <path
         id="path4839"
         transform="translate(32,-1)"
         d="m 9,13 a 2,2 0 1 1 -4,0 2,2 0 1 1 4,0 z"
         inkscape:connector-curvature="0" />
      <path
         id="path4841"
         transform="translate(7,-4.5)"
         d="m 9,13 a 2,2 0 1 1 -4,0 2,2 0 1 1 4,0 z"
         inkscape:connector-curvature="0" />
      <path
         id="path4843"
         transform="translate(24,-4)"
         d="m 9,13 a 2,2 0 1 1 -4,0 2,2 0 1 1 4,0 z"
         inkscape:connector-curvature="0" />
      <path
         id="path4845"
         style="stroke-linecap:butt"
         d="m 9,26 c 8.5,-1.5 21,-1.5 27,0 L 38,14 31,25 V 11 l -5.5,13.5 -3,-15 -3,15 -5.5,-14 V 25 L 7,14 Z"
         inkscape:connector-curvature="0" />
      <path
         id="path4847"
         style="stroke-linecap:butt"
         d="m 9,26 c 0,2 1.5,2 2.5,4 1,1.5 1,1 0.5,3.5 -1.5,1 -1.5,2.5 -1.5,2.5 -1.5,1.5 0.5,2.5 0.5,2.5 6.5,1 16.5,1 23,0 0,0 1.5,-1 0,-2.5 0,0 0.5,-1.5 -1,-2.5 -0.5,-2.5 -0.5,-2 0.5,-3.5 1,-2 2.5,-2 2.5,-4 -8.5,-1.5 -18.5,-1.5 -27,0 z"
         inkscape:connector-curvature="0" />
      <path
         id="path4849"
         style="fill:none"
         d="M 11.5,30 C 15,29 30,29 33.5,30"
         inkscape:connector-curvature="0" />
      <path
         id="path4851"
         style="fill:none"
         d="m 12,33.5 c 6,-1 15,-1 21,0"
         inkscape:connector-curvature="0" />
    </g>
  </g>
  <g
     inkscape:groupmode="layer"
     id="layer5"
     inkscape:label="new 4"
     style="display:none">
    <g
       id="g4988"
       style="opacity:1;fill:none;fill-opacity:1;fill-rule:evenodd;stroke:#000000;stroke-width:1.5;stroke-linecap:round;stroke-linejoin:round;stroke-miterlimit:4;stroke-dasharray:none;stroke-opacity:1"
       transform="matrix(2.7196797,0,0,2.7196797,-11.192787,-10.263071)">
      <g
         id="g4984"
         style="fill:#ffffff;stroke:#000000;stroke-linecap:butt">
        <path
           id="path4978"
           d="m 9,36 c 3.39,-0.97 10.11,0.43 13.5,-2 3.39,2.43 10.11,1.03 13.5,2 0,0 1.65,0.54 3,2 -0.68,0.97 -1.65,0.99 -3,0.5 -3.39,-0.97 -10.11,0.46 -13.5,-1 C 19.11,38.96 12.39,37.53 9,38.5 7.646,38.99 6.677,38.97 6,38 7.354,36.06 9,36 9,36 Z"
           inkscape:connector-curvature="0" />
        <path
           id="path4980"
           d="m 15,32 c 2.5,2.5 12.5,2.5 15,0 0.5,-1.5 0,-2 0,-2 0,-2.5 -2.5,-4 -2.5,-4 5.5,-1.5 6,-11.5 -5,-15.5 -11,4 -10.5,14 -5,15.5 0,0 -2.5,1.5 -2.5,4 0,0 -0.5,0.5 0,2 z"
           inkscape:connector-curvature="0" />
        <path
           id="path4982"
           d="m 25,8 a 2.5,2.5 0 1 1 -5,0 2.5,2.5 0 1 1 5,0 z"
           inkscape:connector-curvature="0" />
      </g>
      <path
         id="path4986"
         style="fill:none;stroke:#000000;stroke-linejoin:miter"
         d="m 17.5,26 h 10 M 15,30 H 30 M 22.5,15.5 v 5 M 20,18 h 5"
         inkscape:connector-curvature="0" />
    </g>
  </g>
  <g
     inkscape:groupmode="layer"
     id="layer6"
     inkscape:label="\"
     style="display:none">
    <g
       id="g5075"
       style="fill:none;fill-opacity:1;fill-rule:evenodd;stroke:#000000;stroke-width:1.5;stroke-linecap:round;stroke-linejoin:round;stroke-miterlimit:4;stroke-dasharray:none;stroke-opacity:1"
       transform="matrix(2.6766014,0,0,2.6766014,-10.139467,-11.045673)">
      <path
         id="path5061"
         style="fill:none;stroke:#000000;stroke-linejoin:miter"
         d="M 22.5,11.63 V 6"
         inkscape:connector-curvature="0" />
      <path
         id="path5063"
         style="fill:none;stroke:#000000;stroke-linejoin:miter"
         d="m 20,8 h 5"
         inkscape:connector-curvature="0" />
      <path
         id="path5065"
         style="fill:#ffffff;stroke:#000000;stroke-linecap:butt;stroke-linejoin:miter"
         d="m 22.5,25 c 0,0 4.5,-7.5 3,-10.5 0,0 -1,-2.5 -3,-2.5 -2,0 -3,2.5 -3,2.5 -1.5,3 3,10.5 3,10.5"
         inkscape:connector-curvature="0" />
      <path
         id="path5067"
         style="fill:#ffffff;stroke:#000000"
         d="m 11.5,37 c 5.5,3.5 15.5,3.5 21,0 v -7 c 0,0 9,-4.5 6,-10.5 -4,-6.5 -13.5,-3.5 -16,4 V 27 23.5 C 19,16 9.5,13 6.5,19.5 c -3,6 5,10 5,10 z"
         inkscape:connector-curvature="0" />
      <path
         id="path5069"
         style="fill:none;stroke:#000000"
         d="M 11.5,30 C 17,27 27,27 32.5,30"
         inkscape:connector-curvature="0" />
      <path
         id="path5071"
         style="fill:none;stroke:#000000"
         d="m 11.5,33.5 c 5.5,-3 15.5,-3 21,0"
         inkscape:connector-curvature="0" />
      <path
         id="path5073"
         style="fill:none;stroke:#000000"
         d="M 11.5,37 C 17,34 27,34 32.5,37"
         inkscape:connector-curvature="0" />
    </g>
  </g>
  <g
     inkscape:groupmode="layer"
     id="layer7"
     inkscape:label="\ 1">
    <g
       id="g5159"
       style="fill:none;fill-opacity:1;fill-rule:evenodd;stroke:#000000;stroke-width:1.5;stroke-linecap:round;stroke-linejoin:round;stroke-miterlimit:4;stroke-dasharray:none;stroke-opacity:1"
       transform="matrix(2.6766067,0,0,2.6766067,-10.139587,-11.045795)">
      <path
         id="path6570"
         style="fill:none;stroke:#000000;stroke-linejoin:miter"
         d="M 22.5,11.63 V 6"
         inkscape:connector-curvature="0" />
      <path
         id="path5149"
         style="fill:#000000;fill-opacity:1;stroke-linecap:butt;stroke-linejoin:miter"
         d="m 22.5,25 c 0,0 4.5,-7.5 3,-10.5 0,0 -1,-2.5 -3,-2.5 -2,0 -3,2.5 -3,2.5 -1.5,3 3,10.5 3,10.5"
         inkscape:connector-curvature="0" />
      <path
         id="path5151"
         style="fill:#000000;stroke:#000000"
         d="m 11.5,37 c 5.5,3.5 15.5,3.5 21,0 v -7 c 0,0 9,-4.5 6,-10.5 -4,-6.5 -13.5,-3.5 -16,4 V 27 23.5 C 19,16 9.5,13 6.5,19.5 c -3,6 5,10 5,10 z"
         inkscape:connector-curvature="0" />
      <path
         id="path5153"
         style="fill:none;stroke:#000000;stroke-linejoin:miter"
         d="m 20,8 h 5"
         inkscape:connector-curvature="0" />
      <path
         id="path5155"
         style="fill:none;stroke:#ffffff"
         d="m 32,29.5 c 0,0 8.5,-4 6.03,-9.65 C 34.15,14 25,18 22.5,24.5 l 0.01,2.1 -0.01,-2.1 C 20,18 9.906,14 6.997,19.85 c -2.497,5.65 4.853,9 4.853,9"
         inkscape:connector-curvature="0" />
      <path
         id="path5157"
         style="fill:none;stroke:#ffffff"
         d="m 11.5,30 c 5.5,-3 15.5,-3 21,0 m -21,3.5 c 5.5,-3 15.5,-3 21,0 m -21,3.5 c 5.5,-3 15.5,-3 21,0"
         inkscape:connector-curvature="0" />
    </g>
  </g>
</svg>
