<?xml version="1.0" encoding="UTF-8" standalone="no"?>
<svg
   xmlns:dc="http://purl.org/dc/elements/1.1/"
   xmlns:cc="http://creativecommons.org/ns#"
   xmlns:rdf="http://www.w3.org/1999/02/22-rdf-syntax-ns#"
   xmlns:svg="http://www.w3.org/2000/svg"
   xmlns="http://www.w3.org/2000/svg"
   xmlns:sodipodi="http://sodipodi.sourceforge.net/DTD/sodipodi-0.dtd"
   xmlns:inkscape="http://www.inkscape.org/namespaces/inkscape"
   version="1.1"
   width="100"
   height="100"
   id="svg3790"
   sodipodi:docname="rook-black.svg"
   inkscape:version="0.92.2 (5c3e80d, 2017-08-06)">
  <metadata
     id="metadata3796">
    <rdf:RDF>
      <cc:Work
         rdf:about="">
        <dc:format>image/svg+xml</dc:format>
        <dc:type
           rdf:resource="http://purl.org/dc/dcmitype/StillImage" />
        <dc:title></dc:title>
      </cc:Work>
    </rdf:RDF>
  </metadata>
  <defs
     id="defs3794" />
  <sodipodi:namedview
     pagecolor="#ffffff"
     bordercolor="#666666"
     borderopacity="1"
     objecttolerance="10"
     gridtolerance="10"
     guidetolerance="10"
     inkscape:pageopacity="0"
     inkscape:pageshadow="2"
     inkscape:window-width="1920"
     inkscape:window-height="1001"
     id="namedview3792"
     showgrid="true"
     inkscape:zoom="5.2444444"
     inkscape:cx="22.620449"
     inkscape:cy="33.004237"
     inkscape:window-x="-9"
     inkscape:window-y="-9"
     inkscape:window-maximized="1"
     inkscape:current-layer="layer3" />
  <g
     inkscape:groupmode="layer"
     id="layer1"
     inkscape:label="new"
     style="display:none">
    <path
       style="opacity:1;fill:#ffffff;fill-opacity:1;fill-rule:nonzero;stroke:#000000;stroke-width:4.43167353;stroke-linecap:round;stroke-linejoin:miter;stroke-miterlimit:4;stroke-dasharray:none;stroke-opacity:1"
       d="m 50,4.944651 c -6.529333,0 -11.817797,5.288464 -11.817797,11.817796 0,2.62946 0.854714,5.054646 2.302394,7.034127 -5.761176,3.308983 -9.688516,9.481244 -9.688516,16.601466 0,5.997532 2.777643,11.343008 7.120683,14.858803 -8.863348,3.131716 -21.892929,16.399269 -21.892929,39.798505 h 67.95233 c 0,-23.399236 -13.029581,-36.666789 -21.892929,-39.798505 4.34304,-3.515795 7.120683,-8.861271 7.120683,-14.858803 0,-7.120222 -3.92734,-13.292483 -9.688516,-16.601466 1.44768,-1.979481 2.302394,-4.404667 2.302394,-7.034127 C 61.817797,10.233115 56.529333,4.944651 50,4.944651 Z"
       id="path3788-0"
       inkscape:connector-curvature="0" />
  </g>
  <g
     inkscape:groupmode="layer"
     id="layer2"
     inkscape:label="new 1"
     style="display:none">
    <g
       id="g4686"
       style="display:inline;opacity:1;fill:#ffffff;fill-opacity:1;fill-rule:evenodd;stroke:#000000;stroke-width:1.5;stroke-linecap:round;stroke-linejoin:round;stroke-miterlimit:4;stroke-dasharray:none;stroke-opacity:1"
       transform="matrix(2.998028,0,0,2.998028,-17.455629,-21.952672)">
      <path
         id="path4672"
         style="stroke-linecap:butt"
         d="M 9,39 H 36 V 36 H 9 Z"
         inkscape:connector-curvature="0" />
      <path
         id="path4674"
         style="stroke-linecap:butt"
         d="m 12,36 v -4 h 21 v 4 z"
         inkscape:connector-curvature="0" />
      <path
         id="path4676"
         style="stroke-linecap:butt"
         d="M 11,14 V 9 h 4 v 2 h 5 V 9 h 5 v 2 h 5 V 9 h 4 v 5"
         inkscape:connector-curvature="0" />
      <path
         id="path4678"
         d="m 34,14 -3,3 H 14 l -3,-3"
         inkscape:connector-curvature="0" />
      <path
         id="path4680"
         style="stroke-linecap:butt;stroke-linejoin:miter"
         d="M 31,17 V 29.5 H 14 V 17"
         inkscape:connector-curvature="0" />
      <path
         id="path4682"
         d="m 31,29.5 1.5,2.5 h -20 L 14,29.5"
         inkscape:connector-curvature="0" />
      <path
         id="path4684"
         style="fill:none;stroke:#000000;stroke-linejoin:miter"
         d="M 11,14 H 34"
         inkscape:connector-curvature="0" />
    </g>
  </g>
  <g
     inkscape:groupmode="layer"
     id="layer3"
     inkscape:label="new 2"
     style="display:inline">
    <g
       id="g4763"
       style="opacity:1;fill-opacity:1;fill-rule:evenodd;stroke:#000000;stroke-width:1.5;stroke-linecap:round;stroke-linejoin:round;stroke-miterlimit:4;stroke-dasharray:none;stroke-opacity:1"
       transform="matrix(2.9980351,0,0,2.9980351,-17.276767,-22.150707)">
      <path
         id="path4741"
         style="stroke-linecap:butt"
         d="M 9,39 H 36 V 36 H 9 Z"
         inkscape:connector-curvature="0" />
      <path
         id="path4743"
         style="stroke-linecap:butt"
         d="M 12.5,32 14,29.5 h 17 l 1.5,2.5 z"
         inkscape:connector-curvature="0" />
      <path
         id="path4745"
         style="stroke-linecap:butt"
         d="m 12,36 v -4 h 21 v 4 z"
         inkscape:connector-curvature="0" />
      <path
         id="path4747"
         style="stroke-linecap:butt;stroke-linejoin:miter"
         d="m 14,29.5 v -13 h 17 v 13 z"
         inkscape:connector-curvature="0" />
      <path
         id="path4749"
         style="stroke-linecap:butt"
         d="M 14,16.5 11,14 h 23 l -3,2.5 z"
         inkscape:connector-curvature="0" />
      <path
         id="path4751"
         style="stroke-linecap:butt"
         d="M 11,14 V 9 h 4 v 2 h 5 V 9 h 5 v 2 h 5 V 9 h 4 v 5 z"
         inkscape:connector-curvature="0" />
      <path
         id="path4753"
         style="fill:none;stroke:#ffffff;stroke-width:1;stroke-linejoin:miter"
         d="m 12,35.5 h 21 v 0"
         inkscape:connector-curvature="0" />
      <path
         id="path4755"
         style="fill:none;stroke:#ffffff;stroke-width:1;stroke-linejoin:miter"
         d="M 13,31.5 H 32"
         inkscape:connector-curvature="0" />
      <path
         id="path4757"
         style="fill:none;stroke:#ffffff;stroke-width:1;stroke-linejoin:miter"
         d="M 14,29.5 H 31"
         inkscape:connector-curvature="0" />
      <path
         id="path4759"
         style="fill:none;stroke:#ffffff;stroke-width:1;stroke-linejoin:miter"
         d="M 14,16.5 H 31"
         inkscape:connector-curvature="0" />
      <path
         id="path4761"
         style="fill:none;stroke:#ffffff;stroke-width:1;stroke-linejoin:miter"
         d="M 11,14 H 34"
         inkscape:connector-curvature="0" />
    </g>
  </g>
</svg>
